<?xml version="1.0" encoding="UTF-8"?>
<svg id="Camada_1" data-name="Camada 1" xmlns="http://www.w3.org/2000/svg" viewBox="0 0 1920 740.98">
  <defs>
    <style>
      .cls-1 {
        fill: #f9f2df;
      }
    </style>
  </defs>
  <g>
    <path class="cls-1" d="M457.83,107.38c16.67,0,31.68,3.86,45.03,11.57,13.34,7.72,24.71,17.73,34.09,30.02,9.38,12.3,16.58,26.17,21.58,41.59,5,15.43,7.51,30.65,7.51,45.66v124.48l11.83,4.41c3.23,1.2,5.49,4.12,5.86,7.55l5.34,49.97c0,4.02-3.26,7.28-7.28,7.28h-91.65c-4.02,0-7.28-3.26-7.28-7.28v-45.62c0-7.16-9.21-9.98-13.29-4.1-5.12,7.38-10.39,13.95-15.8,19.69-10.22,10.85-20.12,19.5-29.71,25.96-9.6,6.47-18.67,10.95-27.21,13.45-8.55,2.5-16.16,3.75-22.83,3.75-7.1,0-14.39-1.05-21.89-3.13-7.51-2.09-14.39-5.63-20.64-10.63-6.26-5-11.37-11.57-15.33-19.7-3.97-8.13-5.94-18.24-5.94-30.34s2.19-22.93,6.57-32.53c4.38-9.59,10.73-18.86,19.08-27.83,8.34-8.96,18.66-18.45,30.96-28.46,12.29-10.01,26.16-21.47,41.59-34.4,15.01-12.51,26.58-23.77,34.71-33.78,8.13-10.01,14.07-18.45,17.83-25.33,3.75-6.88,5.94-12.4,6.57-16.58.27-1.78.48-3.22.63-4.32.23-1.63-.09-3.29-.97-4.67-3.13-4.89-6.98-8.98-11.54-12.27-5.22-3.75-11.57-5.63-19.08-5.63-10.43-.83-20.64,2.09-30.65,8.76-8.35,5.42-17.1,15.01-26.27,28.77-8.86,13.28-16.74,32.98-23.65,59.08-.48,1.82-1.61,3.42-3.17,4.46h0c-3.74,2.5-8.82,1.27-11.01-2.67l-30.72-55.29c-6.87-12.36-2.63-28.04,9.64-35.08,10.53-6.03,21.2-11.63,32.02-16.79,15.84-7.51,32.94-14.39,51.29-20.64,18.34-6.26,36.28-9.38,53.79-9.38ZM435.31,380.09c4.58,0,8.54-2.39,11.88-7.19,3.33-4.79,6.25-11.04,8.76-18.77,2.5-7.71,4.58-16.47,6.25-26.27,1.66-9.79,3.13-19.91,4.38-30.34,2.36-22.46,3.61-48.07,3.74-76.86.01-3.05-1.88-5.79-4.73-6.86h0c-3.1-1.16-6.63-.1-8.52,2.62-14.62,21-25.52,42.09-32.71,63.27-7.72,22.73-11.79,42.43-12.2,59.11,0,12.51,1.97,22.52,5.94,30.02,3.96,7.51,9.7,11.26,17.2,11.26Z"/>
    <path class="cls-1" d="M1037.81,121.71l-48.73,301.89c-.62,3.84-3.94,6.67-7.83,6.67h-145.53c-3.82,0-7.09-2.72-7.8-6.47l-12.15-65.01c-1.62-8.66-14.03-8.62-15.6.04l-11.77,64.93c-.68,3.77-3.97,6.52-7.8,6.52h-145.5c-3.89,0-7.21-2.82-7.83-6.67l-48.73-301.89c-.78-4.82,2.95-9.19,7.83-9.19h67.75c3.89,0,7.21,2.82,7.83,6.67l38.58,238.71c1.42,8.77,13.99,8.93,15.62.2l44.83-239.1c.7-3.75,3.98-6.47,7.79-6.47h78.78c3.82,0,7.09,2.72,7.79,6.47l44.83,239.1c1.64,8.74,14.21,8.58,15.62-.2l38.58-238.71c.62-3.84,3.94-6.67,7.83-6.67h67.75c4.88,0,8.61,4.37,7.83,9.19Z"/>
    <path class="cls-1" d="M1213.55,120.31v51.33c0,4.31-3.49,7.8-7.8,7.8h-45.07c-4.31,0-7.8,3.49-7.8,7.8v235.22c0,4.31-3.49,7.8-7.8,7.8h-67.59c-4.31,0-7.8-3.49-7.8-7.8v-235.22c0-10.13-11.74-7.8-16.05-7.8h-3.79c-4.31,0-7.8-3.49-7.8-7.8l8.25-51.33c0-4.31,3.49-7.8,7.8-7.8h9.89c3.49,0,6.56-2.32,7.49-5.68,5.89-21.42,16.99-38.09,33.3-49.99,17.72-12.92,42.22-19.39,73.49-19.39h20.98c4.31,0,7.8,3.49,7.8,7.8v43.82c0,4.31-3.49,7.8-7.8,7.8h-20.98c-.83,0-1.65.03-2.45.08-9.86.66-9.09,15.56.79,15.56h25.13c4.31,0,7.8,3.49,7.8,7.8Z"/>
    <path class="cls-1" d="M1441.91,320.31c15.84,28.9,4.34,65.18-25.27,79.67l-.54.26c-15.85,7.51-32.95,14.39-51.29,20.64-18.35,6.25-36.28,9.38-53.79,9.38-20.01,0-37.01-4.48-50.98-13.45-13.98-8.96-25.13-20.53-33.47-34.71-8.35-14.17-14.38-30.02-18.14-47.54-3.75-17.51-5.63-34.61-5.63-51.29,0-28.77,4.79-53.79,14.38-75.06,9.59-21.27,21.99-38.98,37.22-53.17,15.22-14.17,32.21-24.8,50.98-31.9,18.77-7.09,37.11-10.63,55.04-10.63,13.34,0,25.85,1.15,37.53,3.44,11.67,2.3,21.99,6.05,30.96,11.26,8.96,5.22,16.05,11.88,21.27,20.01,5.21,8.13,7.82,17.62,7.82,28.46,0,12.1-2.19,22.94-6.57,32.53-4.38,9.6-10.74,18.98-19.08,28.15-8.35,9.18-18.56,18.76-30.65,28.77-12.1,10.01-26.06,21.48-41.91,34.4-21.69,17.93-36.38,33.05-44.1,45.35-6.26,9.98-10.53,17.96-12.8,23.96-.91,2.4-.57,5.1.94,7.17,2.87,3.93,6.2,7.21,9.99,9.84,4.79,3.34,10.73,5,17.83,5,10.42.84,20.64-2.08,30.65-8.76,8.76-5.83,17.72-15.53,26.9-29.09,8.79-12.99,16.44-32.42,22.94-58.26.53-2.12,1.91-3.96,3.82-5.03h0c3.86-2.17,8.76-.77,10.89,3.11l15.06,27.47ZM1332.92,167.56c-4.59,0-8.55,2.4-11.89,7.19-3.34,4.8-6.25,11.05-8.76,18.77-2.5,7.72-4.59,16.48-6.26,26.27-1.67,9.8-3.13,19.92-4.38,30.34-2.35,22.76-3.6,48.48-3.74,77.15-.02,3.23,2.03,6.14,5.08,7.21h0c3.26,1.15,6.92-.03,8.84-2.91,14.19-21.29,24.86-42.5,32.04-63.62,7.71-22.72,11.78-42.43,12.2-59.11,0-12.51-1.88-22.52-5.63-30.02-3.75-7.51-9.6-11.26-17.51-11.26Z"/>
    <path class="cls-1" d="M1599.37,355.2c7.09,0,12.92-1.35,17.51-4.07,4.58-2.71,8.23-6.25,10.95-10.63,2.71-4.38,4.58-9.38,5.63-15.01.5-2.69.87-5.41,1.13-8.14.49-5.17,4.95-9.06,10.14-9.06h50.59c5.75,0,10.4,4.77,10.22,10.51-.47,15.37-1.98,29.27-4.53,41.71-3.13,15.23-8.66,27.94-16.58,38.15-7.93,10.22-18.76,18.04-32.52,23.46-13.76,5.42-31.27,8.13-52.54,8.13-36.28,0-65.16-8.76-86.63-26.27-21.48-17.51-32.43-45.66-32.84-84.44v-96.32c.41-38.78,11.36-66.93,32.84-84.44,21.47-17.51,50.35-26.27,86.63-26.27,21.27,0,38.78,2.72,52.54,8.13,13.76,5.42,24.6,13.24,32.52,23.46,7.92,10.22,13.45,22.94,16.58,38.15,2.56,12.45,4.07,26.35,4.53,41.71.17,5.75-4.47,10.51-10.22,10.51h-50.59c-5.19,0-9.65-3.89-10.14-9.06-.26-2.74-.64-5.45-1.13-8.14-1.05-5.63-2.92-10.63-5.63-15.01-2.72-4.38-6.36-7.92-10.95-10.63-4.59-2.71-10.43-4.07-17.51-4.07s-12.93,1.88-17.51,5.63c-4.59,3.75-8.35,8.44-11.26,14.07-.42.81-.84,1.79-1.26,2.86-3.37,8.69-2.68,18.39,1.52,26.71,1.84,3.64,3.37,7.48,3.37,10.15v48.79c0,2.67-1.53,6.51-3.37,10.15-4.2,8.32-4.89,18.02-1.52,26.71.42,1.07.84,2.05,1.26,2.86,2.91,5.63,6.67,10.32,11.26,14.07,4.58,3.75,10.42,5.63,17.51,5.63Z"/>
    <path class="cls-1" d="M1882.21,180.18h-55.19v105.62c0,21.67,1.56,38.04,4.69,49.07,3.13,11.05,11.35,16.57,24.69,16.57h19.73c4.99,0,9.03,4.04,9.03,9.03v61.36c0,4.99-4.04,9.03-9.03,9.03h-19.73c-37.93.41-66.06-9.06-84.39-28.44-18.35-19.38-27.51-46.78-27.51-82.2,0-23.33-.11-46.57-.31-69.7-.22-23.13-.31-46.57-.31-70.33h-17.14c-5.12,0-9.73-3.11-11.65-7.87l-20.75-51.54c-1.44-3.58,1.19-7.48,5.05-7.48h44.49V43.73c0-3.01,2.44-5.45,5.45-5.45h50.32c15.12,0,27.37,12.25,27.37,27.37v47.64h55.19c3.01,0,5.45,2.44,5.45,5.45v55.99c0,3.01-2.44,5.45-5.45,5.45Z"/>
    <path class="cls-1" d="M202.41,112.52c17.28,0,31.93,3.48,43.94,10.43,12.01,6.96,21.6,16.23,28.77,27.82,7.16,11.6,12.33,24.66,15.49,39.2,3.16,14.54,4.74,29.4,4.74,44.57,0,3.38-.11,9.07-.31,17.07-.22,8.01-.43,16.34-.63,24.97-.22,8.64-.31,16.44-.31,23.39v12.33c-.43,43.84-8.96,75.13-25.61,93.88-16.65,18.76-38.04,28.14-64.17,28.14-11.8,0-21.18-1.47-28.13-4.43-6.96-2.94-12.96-6.1-18.02-9.48-5.06-3.37-9.7-6.64-13.91-9.8-4.22-3.16-9.28-4.74-15.17-4.74-2.95,0-5.37,1.06-7.27,3.16-1.9,2.11-3.16,4.74-3.79,7.9-.63,3.16-1.06,6.32-1.27,9.48-.22,3.16-.31,5.8-.31,7.9v75.23H32.35V112.52h53.32c16.99,0,30.77,13.77,30.77,30.77v45.1h12.01c0-14.32,2.21-26.34,6.64-36.04,4.42-9.69,10.11-17.48,17.07-23.39,6.96-5.9,14.86-10.11,23.71-12.64,8.85-2.53,17.7-3.79,26.55-3.79ZM165.11,374.89c8.42,0,15.49-1.79,21.18-5.37,5.69-3.57,10.32-8.11,13.91-13.59,3.57-5.47,6.11-11.59,7.59-18.33,1.47-6.74,2.21-13.48,2.21-20.23v-22.44c0-9.06-.11-18.02-.31-26.87-.22-8.85-.31-16.65-.31-23.39v-11.38c0-5.06-1.06-10.21-3.16-15.49-2.11-5.26-5.06-10.01-8.85-14.22-3.79-4.21-8.12-7.59-12.96-10.12-4.85-2.53-10.02-3.79-15.49-3.79-5.91,0-11.8,1.58-17.7,4.74-5.91,3.16-11.28,8.44-16.12,15.81-4.85,7.38-8.85,16.86-12.01,28.45-3.16,11.6-5.16,25.82-6,42.67.41,18.13,1.79,33.19,4.11,45.21,2.31,12.01,5.58,21.6,9.8,28.76,4.21,7.17,9.17,12.23,14.86,15.17,5.69,2.95,12.11,4.43,19.28,4.43Z"/>
  </g>
  <g>
    <path class="cls-1" d="M639.33,539.41c5.91-3.08,12.6-4.61,20.06-4.61,8.52,0,16.3,2.1,23.34,6.3,7.04,4.2,12.57,10.09,16.6,17.66,4.02,7.57,6.03,16.27,6.03,26.09s-2.01,18.61-6.03,26.36c-4.02,7.75-9.56,13.79-16.6,18.11-7.04,4.32-14.82,6.48-23.34,6.48-7.45,0-14.08-1.51-19.88-4.53-5.8-3.02-10.53-6.77-14.2-11.27v60.71h-20.23v-144.31h20.23v14.38c3.43-4.49,8.1-8.28,14.02-11.36ZM680.59,567.37c-2.78-4.91-6.45-8.64-11-11.18-4.56-2.55-9.44-3.82-14.64-3.82s-9.91,1.3-14.47,3.9c-4.56,2.61-8.23,6.39-11.01,11.36-2.78,4.97-4.17,10.83-4.17,17.57s1.39,12.63,4.17,17.66c2.78,5.03,6.45,8.85,11.01,11.45,4.55,2.6,9.38,3.9,14.47,3.9s10.09-1.33,14.64-3.99c4.55-2.66,8.22-6.54,11-11.63,2.78-5.09,4.17-11.01,4.17-17.75s-1.39-12.57-4.17-17.48Z"/>
    <path class="cls-1" d="M807.24,592.84h-74.73c.59,7.81,3.49,14.08,8.7,18.82,5.21,4.73,11.6,7.1,19.17,7.1,10.89,0,18.58-4.55,23.08-13.67h21.83c-2.96,8.99-8.31,16.36-16.06,22.1-7.75,5.74-17.37,8.61-28.84,8.61-9.35,0-17.72-2.1-25.12-6.3-7.4-4.2-13.2-10.12-17.4-17.75-4.2-7.63-6.3-16.47-6.3-26.54s2.04-18.9,6.12-26.54c4.08-7.63,9.82-13.52,17.22-17.66,7.4-4.14,15.89-6.21,25.47-6.21s17.45,2.01,24.67,6.03c7.22,4.02,12.84,9.67,16.86,16.95,4.02,7.28,6.03,15.65,6.03,25.12,0,3.67-.24,6.98-.71,9.94ZM786.83,576.51c-.12-7.45-2.78-13.43-7.99-17.93-5.21-4.49-11.66-6.74-19.35-6.74-6.98,0-12.96,2.22-17.93,6.66-4.97,4.44-7.93,10.45-8.87,18.02h54.14Z"/>
    <path class="cls-1" d="M844.33,552.9v54.14c0,3.67.86,6.3,2.57,7.9s4.64,2.39,8.79,2.39h12.42v16.86h-15.97c-9.11,0-16.1-2.13-20.95-6.39-4.85-4.26-7.28-11.18-7.28-20.77v-54.14h-11.54v-16.51h11.54v-24.32h20.41v24.32h23.78v16.51h-23.78Z"/>
    <path class="cls-1" d="M918.08,558.67c4.08-7.63,9.73-13.52,16.95-17.66,7.22-4.14,15.5-6.21,24.85-6.21,11.83,0,21.62,2.81,29.38,8.43,7.75,5.62,12.99,13.64,15.71,24.05h-21.83c-1.78-4.85-4.62-8.64-8.52-11.36-3.9-2.72-8.82-4.08-14.73-4.08-8.28,0-14.88,2.93-19.79,8.79s-7.37,14.05-7.37,24.58,2.46,18.76,7.37,24.67c4.91,5.92,11.51,8.87,19.79,8.87,11.71,0,19.46-5.15,23.25-15.44h21.83c-2.84,9.94-8.16,17.84-15.98,23.69-7.81,5.86-17.51,8.79-29.11,8.79-9.35,0-17.64-2.1-24.85-6.3-7.22-4.2-12.87-10.12-16.95-17.75-4.08-7.63-6.12-16.47-6.12-26.54s2.04-18.9,6.12-26.54Z"/>
    <path class="cls-1" d="M1017.48,558.76c4.08-7.57,9.64-13.46,16.69-17.66,7.04-4.2,14.82-6.3,23.34-6.3,7.69,0,14.41,1.51,20.15,4.53,5.74,3.02,10.32,6.78,13.76,11.27v-14.2h20.41v97.8h-20.41v-14.56c-3.43,4.61-8.11,8.46-14.02,11.54-5.92,3.08-12.66,4.61-20.23,4.61-8.4,0-16.1-2.16-23.08-6.48-6.98-4.32-12.51-10.35-16.6-18.11-4.08-7.75-6.12-16.54-6.12-26.36s2.04-18.52,6.12-26.09ZM1087.24,567.64c-2.78-4.97-6.42-8.76-10.92-11.36-4.5-2.6-9.35-3.9-14.56-3.9s-10.06,1.27-14.56,3.82-8.14,6.27-10.92,11.18c-2.78,4.91-4.17,10.74-4.17,17.48s1.39,12.66,4.17,17.75c2.78,5.09,6.45,8.96,11.01,11.63,4.55,2.66,9.38,3.99,14.47,3.99s10.06-1.3,14.56-3.9c4.49-2.6,8.13-6.42,10.92-11.45,2.78-5.03,4.17-10.92,4.17-17.66s-1.39-12.6-4.17-17.57Z"/>
    <path class="cls-1" d="M1163.38,538.97c4.91-2.78,10.74-4.17,17.48-4.17v20.94h-5.15c-7.93,0-13.93,2.01-18.02,6.03-4.08,4.03-6.12,11.01-6.12,20.95v51.47h-20.23v-97.8h20.23v14.2c2.96-4.97,6.89-8.84,11.8-11.63Z"/>
    <path class="cls-1" d="M1281.33,592.84h-74.73c.59,7.81,3.49,14.08,8.7,18.82,5.21,4.73,11.6,7.1,19.17,7.1,10.89,0,18.58-4.55,23.08-13.67h21.83c-2.96,8.99-8.31,16.36-16.06,22.1-7.75,5.74-17.37,8.61-28.84,8.61-9.35,0-17.72-2.1-25.12-6.3-7.4-4.2-13.2-10.12-17.4-17.75-4.2-7.63-6.3-16.47-6.3-26.54s2.04-18.9,6.12-26.54c4.08-7.63,9.82-13.52,17.22-17.66,7.4-4.14,15.89-6.21,25.47-6.21s17.45,2.01,24.67,6.03c7.22,4.02,12.84,9.67,16.86,16.95,4.02,7.28,6.03,15.65,6.03,25.12,0,3.67-.24,6.98-.71,9.94ZM1260.92,576.51c-.12-7.45-2.78-13.43-7.99-17.93-5.21-4.49-11.66-6.74-19.35-6.74-6.98,0-12.96,2.22-17.93,6.66-4.97,4.44-7.93,10.45-8.87,18.02h54.14Z"/>
  </g>
</svg>